<?xml version="1.0" standalone="no"?><!DOCTYPE svg PUBLIC "-//W3C//DTD SVG 1.1//EN" "http://www.w3.org/Graphics/SVG/1.1/DTD/svg11.dtd"><svg t="1571232004373" class="icon" viewBox="0 0 1024 1024" version="1.1" xmlns="http://www.w3.org/2000/svg" p-id="1004" width="32" height="32" xmlns:xlink="http://www.w3.org/1999/xlink"><defs><style type="text/css"></style></defs><path d="M844.749723 923.417004V645.640871c0-37.413373-30.331285-67.747368-67.744657-67.747368-37.416083 0-67.747368 30.331285-67.747368 67.747368v310.611761c0 37.416083 30.331285 67.747368 67.747368 67.747368h122.352353a19.408661 19.408661 0 0 0 19.411372-19.411372c-0.00271-42.495238-32.515809-77.379875-74.019068-81.171624zM415.048844 476.641056c-62.708867 0-113.543786 50.834919-113.543786 113.543786v111.92301c-39.169665 6.68638-68.991408 40.77147-68.991408 81.846496v172.298284c0 37.416083 30.331285 67.747368 67.747367 67.747368h122.352354a19.408661 19.408661 0 0 0 19.411371-19.411372c0-41.638775-31.222983-75.948821-71.528275-80.884329v-87.589682h25.233157c73.37672 0 132.860296-59.480866 132.860296-132.857586v-113.072189c0-62.708867-50.834919-113.543786-113.541076-113.543786z" fill="#D9C47C" p-id="1005"></path><path d="M816.190993 407.825819H238.476372c-35.502591 0-68.159338 12.096195-94.151387 32.347769-72.650352 15.893366-127.217393 80.702737-127.217392 158.050088v53.206456h32.52394V598.223676c0-41.370452 19.555019-78.236339 49.880883-101.916477a152.705321 152.705321 0 0 0-14.394554 64.87713v148.937964c-26.734679 13.800992-45.026685 41.671299-45.026685 73.832055v172.298284c0 37.416083 30.331285 67.747368 67.747368 67.747368h122.352353a19.408661 19.408661 0 0 0 19.411372-19.411372c0-41.638775-31.222983-75.948821-71.528276-80.884329v-87.589682h25.235867c40.123701 0 76.062655-17.809568 100.425797-45.929224h213.099568v166.067239c0 37.416083 30.331285 67.747368 67.747368 67.747368h122.352353a19.408661 19.408661 0 0 0 19.411372-19.411372c0-42.495238-32.513099-77.379875-74.016358-81.171624v-133.231611h36.597564c102.328447 0 185.278047-82.95231 185.278047-185.280757v-139.066949c-0.00271-32.038792-25.975787-58.011868-58.014579-58.011868z" fill="#FADF8D" p-id="1006"></path><path d="M60.405088 641.675661l-6.220203 34.464535a21.145982 21.145982 0 0 1-24.563706 17.053386c-8.91698-1.609935-15.51663-8.637816-17.053386-17.053386l-6.220204-34.464535c-2.691356-14.928489 7.223025-29.214629 22.151514-31.905986 14.931199-2.694066 29.211919 7.225735 31.905985 22.151514a28.070871 28.070871 0 0 1 0 9.754472z" fill="#FF9E16" p-id="1007"></path><path d="M914.228991 126.905705c29.859688-20.904763 71.010603-13.649214 91.923497 16.207764 20.904763 29.859688 13.646503 71.013313-16.207764 91.920786l-75.715733-108.12855z" fill="#FADF8D" p-id="1008"></path><path d="M927.688482 146.130064c19.246042-13.473042 45.766605-8.797726 59.239647 10.445606 13.475753 19.243331 8.795016 45.763894-10.445606 59.236936l-48.794041-69.682542z" fill="#BF9B5F" p-id="1009"></path><path d="M686.312058 327.228785m-327.228784 0a327.228785 327.228785 0 1 0 654.457569 0 327.228785 327.228785 0 1 0-654.457569 0Z" fill="#FF9E16" p-id="1010"></path><path d="M993.687688 334.365079l-72.994564-110.594949a193.755954 193.755954 0 0 0-6.369272-9.648769l-0.051496-0.078599-0.00271 0.00271c-26.463646-37.589544-65.755276-65.484244-111.50833-77.352771-116.492623-14.85531-202.494053 81.849206-202.494052 190.536084 0 108.713981 88.131747 196.843018 196.843018 196.843018h139.999301c41.310825 0 74.802352-33.491528 74.802353-74.802353V383.267534a74.468982 74.468982 0 0 0-18.224248-48.902455z" fill="#FADF8D" p-id="1011"></path><path d="M797.294584 306.321312m-19.798949 0a19.798949 19.798949 0 1 0 39.597898 0 19.798949 19.798949 0 1 0-39.597898 0Z" fill="#333E48" p-id="1012"></path><path d="M978.653496 387.167696c-12.258815 12.71144-32.68385 13.074624-45.384448 0.810388l-14.169597-13.681737c-12.706019-12.266946-8.651368-22.303292 9.009132-22.303292h52.355413c17.6605 0 22.078335 10.39953 9.819519 23.11368l-11.630019 12.060961z" fill="#333E48" p-id="1013"></path><path d="M597.226275 151.106227c-29.859688-20.907473-71.010603-13.651924-91.920786 16.207763-20.904763 29.859688-13.649214 71.013313 16.205053 91.920787l75.715733-108.12855z" fill="#FADF8D" p-id="1014"></path><path d="M583.772205 170.330586c-19.248752-13.473042-45.769315-8.797726-59.239647 10.445605-13.475753 19.240621-8.797726 45.763894 10.442896 59.236937l48.796751-69.682542z" fill="#BF9B5F" p-id="1015"></path></svg>